<mxfile host="app.diagrams.net" modified="2024-06-07T00:02:17.414Z" agent="Mozilla/5.0 (Windows NT 6.1; Win64; x64) AppleWebKit/537.36 (KHTML, like Gecko) Chrome/100.0.4896.127 Safari/537.36 OPR/86.0.4363.59" etag="wBFwVl1lJ-ZaPY2uPICM" version="24.4.15" type="github">
  <diagram name="Page-1" id="YK2FqyMinu_9lJJaSsV9">
    <mxGraphModel dx="1680" dy="994" grid="1" gridSize="10" guides="1" tooltips="1" connect="1" arrows="1" fold="1" page="1" pageScale="1" pageWidth="850" pageHeight="1100" math="0" shadow="0">
      <root>
        <mxCell id="0" />
        <mxCell id="1" style="locked=1;" parent="0" />
        <mxCell id="xrr_TDMlj9EIbR4N-KWx-1" value="" style="rounded=0;whiteSpace=wrap;html=1;fontSize=15;strokeWidth=2;strokeColor=#2E2E2E;" parent="1" vertex="1">
          <mxGeometry x="130" y="150" width="680" height="710" as="geometry" />
        </mxCell>
        <mxCell id="xrr_TDMlj9EIbR4N-KWx-11" style="rounded=0;orthogonalLoop=1;jettySize=auto;html=1;endArrow=none;endFill=0;fontSize=15;strokeWidth=2;strokeColor=#2E2E2E;" parent="1" source="xrr_TDMlj9EIbR4N-KWx-2" target="xrr_TDMlj9EIbR4N-KWx-9" edge="1">
          <mxGeometry relative="1" as="geometry" />
        </mxCell>
        <mxCell id="xrr_TDMlj9EIbR4N-KWx-2" value="Employé" style="shape=umlActor;verticalLabelPosition=bottom;verticalAlign=top;html=1;outlineConnect=0;fontSize=15;strokeWidth=2;strokeColor=#2E2E2E;" parent="1" vertex="1">
          <mxGeometry x="40" y="220" width="30" height="60" as="geometry" />
        </mxCell>
        <mxCell id="xrr_TDMlj9EIbR4N-KWx-12" style="edgeStyle=orthogonalEdgeStyle;rounded=0;orthogonalLoop=1;jettySize=auto;html=1;endArrow=block;endFill=0;fontSize=15;strokeWidth=2;strokeColor=#2E2E2E;" parent="1" source="xrr_TDMlj9EIbR4N-KWx-3" target="xrr_TDMlj9EIbR4N-KWx-2" edge="1">
          <mxGeometry relative="1" as="geometry" />
        </mxCell>
        <mxCell id="xrr_TDMlj9EIbR4N-KWx-21" style="rounded=0;orthogonalLoop=1;jettySize=auto;html=1;endArrow=none;endFill=0;fontSize=15;strokeWidth=2;strokeColor=#2E2E2E;" parent="1" source="xrr_TDMlj9EIbR4N-KWx-3" target="xrr_TDMlj9EIbR4N-KWx-19" edge="1">
          <mxGeometry relative="1" as="geometry" />
        </mxCell>
        <mxCell id="xrr_TDMlj9EIbR4N-KWx-24" style="rounded=0;orthogonalLoop=1;jettySize=auto;html=1;strokeColor=#2E2E2E;endArrow=none;endFill=0;fontSize=15;strokeWidth=2;" parent="1" source="xrr_TDMlj9EIbR4N-KWx-3" target="xrr_TDMlj9EIbR4N-KWx-22" edge="1">
          <mxGeometry relative="1" as="geometry" />
        </mxCell>
        <mxCell id="xrr_TDMlj9EIbR4N-KWx-31" style="rounded=0;orthogonalLoop=1;jettySize=auto;html=1;endArrow=none;endFill=0;fontSize=15;strokeWidth=2;strokeColor=#2E2E2E;" parent="1" source="xrr_TDMlj9EIbR4N-KWx-3" target="xrr_TDMlj9EIbR4N-KWx-30" edge="1">
          <mxGeometry relative="1" as="geometry" />
        </mxCell>
        <mxCell id="xrr_TDMlj9EIbR4N-KWx-3" value="Technicien" style="shape=umlActor;verticalLabelPosition=bottom;verticalAlign=top;html=1;outlineConnect=0;fontSize=15;strokeWidth=2;strokeColor=#2E2E2E;" parent="1" vertex="1">
          <mxGeometry x="40" y="440" width="30" height="60" as="geometry" />
        </mxCell>
        <mxCell id="xrr_TDMlj9EIbR4N-KWx-13" style="edgeStyle=orthogonalEdgeStyle;rounded=0;orthogonalLoop=1;jettySize=auto;html=1;endArrow=blockThin;endFill=0;fontSize=15;strokeWidth=2;strokeColor=#2E2E2E;" parent="1" source="xrr_TDMlj9EIbR4N-KWx-4" target="xrr_TDMlj9EIbR4N-KWx-3" edge="1">
          <mxGeometry relative="1" as="geometry" />
        </mxCell>
        <mxCell id="xrr_TDMlj9EIbR4N-KWx-28" style="rounded=0;orthogonalLoop=1;jettySize=auto;html=1;endArrow=none;endFill=0;fontSize=15;strokeWidth=2;strokeColor=#2E2E2E;" parent="1" source="xrr_TDMlj9EIbR4N-KWx-4" target="xrr_TDMlj9EIbR4N-KWx-15" edge="1">
          <mxGeometry relative="1" as="geometry" />
        </mxCell>
        <mxCell id="xrr_TDMlj9EIbR4N-KWx-29" style="rounded=0;orthogonalLoop=1;jettySize=auto;html=1;endArrow=none;endFill=0;fontSize=15;strokeWidth=2;strokeColor=#2E2E2E;" parent="1" source="xrr_TDMlj9EIbR4N-KWx-4" target="xrr_TDMlj9EIbR4N-KWx-20" edge="1">
          <mxGeometry relative="1" as="geometry" />
        </mxCell>
        <mxCell id="xrr_TDMlj9EIbR4N-KWx-4" value="Admin" style="shape=umlActor;verticalLabelPosition=bottom;verticalAlign=top;html=1;outlineConnect=0;fontSize=15;strokeWidth=2;strokeColor=#2E2E2E;" parent="1" vertex="1">
          <mxGeometry x="40" y="680" width="30" height="60" as="geometry" />
        </mxCell>
        <mxCell id="xrr_TDMlj9EIbR4N-KWx-9" value="Gérer un Ticket" style="ellipse;whiteSpace=wrap;html=1;fontSize=15;strokeWidth=2;strokeColor=#2E2E2E;" parent="1" vertex="1">
          <mxGeometry x="600" y="180" width="120" height="80" as="geometry" />
        </mxCell>
        <mxCell id="xrr_TDMlj9EIbR4N-KWx-14" value="Authentifier" style="ellipse;whiteSpace=wrap;html=1;fontSize=15;strokeWidth=2;strokeColor=#2E2E2E;" parent="1" vertex="1">
          <mxGeometry x="650" y="480" width="120" height="80" as="geometry" />
        </mxCell>
        <mxCell id="xrr_TDMlj9EIbR4N-KWx-15" value="Gérer utilisateurs" style="ellipse;whiteSpace=wrap;html=1;fontSize=15;strokeWidth=2;strokeColor=#2E2E2E;" parent="1" vertex="1">
          <mxGeometry x="510" y="710" width="120" height="80" as="geometry" />
        </mxCell>
        <mxCell id="xrr_TDMlj9EIbR4N-KWx-17" value="&amp;lt;&amp;lt;include&amp;gt;&amp;gt;" style="endArrow=open;endSize=12;dashed=1;html=1;rounded=0;fontSize=15;strokeWidth=2;strokeColor=#2E2E2E;" parent="1" source="xrr_TDMlj9EIbR4N-KWx-9" target="xrr_TDMlj9EIbR4N-KWx-14" edge="1">
          <mxGeometry width="160" relative="1" as="geometry">
            <mxPoint x="300" y="270" as="sourcePoint" />
            <mxPoint x="460" y="270" as="targetPoint" />
          </mxGeometry>
        </mxCell>
        <mxCell id="xrr_TDMlj9EIbR4N-KWx-18" value="&amp;lt;&amp;lt;include&amp;gt;&amp;gt;" style="endArrow=open;endSize=12;dashed=1;html=1;rounded=0;fontSize=15;strokeWidth=2;strokeColor=#2E2E2E;" parent="1" source="xrr_TDMlj9EIbR4N-KWx-15" target="xrr_TDMlj9EIbR4N-KWx-14" edge="1">
          <mxGeometry width="160" relative="1" as="geometry">
            <mxPoint x="240.36" y="412.02" as="sourcePoint" />
            <mxPoint x="600.36" y="628.02" as="targetPoint" />
          </mxGeometry>
        </mxCell>
        <mxCell id="xrr_TDMlj9EIbR4N-KWx-19" value="Gérer une interventon" style="ellipse;whiteSpace=wrap;html=1;fontSize=15;strokeWidth=2;strokeColor=#2E2E2E;" parent="1" vertex="1">
          <mxGeometry x="290" y="390" width="120" height="80" as="geometry" />
        </mxCell>
        <mxCell id="xrr_TDMlj9EIbR4N-KWx-20" value="Affecter un ticket" style="ellipse;whiteSpace=wrap;html=1;fontSize=15;strokeWidth=2;strokeColor=#2E2E2E;" parent="1" vertex="1">
          <mxGeometry x="290" y="620" width="120" height="80" as="geometry" />
        </mxCell>
        <mxCell id="xrr_TDMlj9EIbR4N-KWx-22" value="Gérer matériels" style="ellipse;whiteSpace=wrap;html=1;fontSize=15;strokeWidth=2;strokeColor=#2E2E2E;" parent="1" vertex="1">
          <mxGeometry x="290" y="510" width="120" height="80" as="geometry" />
        </mxCell>
        <mxCell id="xrr_TDMlj9EIbR4N-KWx-25" value="&amp;lt;&amp;lt;include&amp;gt;&amp;gt;" style="endArrow=open;endSize=12;dashed=1;html=1;rounded=0;fontSize=15;strokeWidth=2;strokeColor=#2E2E2E;" parent="1" source="xrr_TDMlj9EIbR4N-KWx-19" target="xrr_TDMlj9EIbR4N-KWx-14" edge="1">
          <mxGeometry width="160" relative="1" as="geometry">
            <mxPoint x="320.36" y="373.76" as="sourcePoint" />
            <mxPoint x="680.36" y="589.76" as="targetPoint" />
          </mxGeometry>
        </mxCell>
        <mxCell id="xrr_TDMlj9EIbR4N-KWx-26" value="&amp;lt;&amp;lt;include&amp;gt;&amp;gt;" style="endArrow=open;endSize=12;dashed=1;html=1;rounded=0;exitX=0.948;exitY=0.781;exitDx=0;exitDy=0;exitPerimeter=0;entryX=0;entryY=0.5;entryDx=0;entryDy=0;fontSize=15;strokeWidth=2;strokeColor=#2E2E2E;" parent="1" source="xrr_TDMlj9EIbR4N-KWx-22" target="xrr_TDMlj9EIbR4N-KWx-14" edge="1">
          <mxGeometry width="160" relative="1" as="geometry">
            <mxPoint x="350" y="494" as="sourcePoint" />
            <mxPoint x="710" y="710" as="targetPoint" />
          </mxGeometry>
        </mxCell>
        <mxCell id="xrr_TDMlj9EIbR4N-KWx-27" value="&amp;lt;&amp;lt;include&amp;gt;&amp;gt;" style="endArrow=open;endSize=12;dashed=1;html=1;rounded=0;fontSize=15;strokeWidth=2;strokeColor=#2E2E2E;" parent="1" source="xrr_TDMlj9EIbR4N-KWx-20" target="xrr_TDMlj9EIbR4N-KWx-14" edge="1">
          <mxGeometry width="160" relative="1" as="geometry">
            <mxPoint x="350" y="574" as="sourcePoint" />
            <mxPoint x="710" y="790" as="targetPoint" />
          </mxGeometry>
        </mxCell>
        <mxCell id="xrr_TDMlj9EIbR4N-KWx-30" value="Consulter l&#39;etats du parc" style="ellipse;whiteSpace=wrap;html=1;fontSize=15;strokeWidth=2;strokeColor=#2E2E2E;" parent="1" vertex="1">
          <mxGeometry x="230" y="280" width="120" height="80" as="geometry" />
        </mxCell>
        <mxCell id="xrr_TDMlj9EIbR4N-KWx-35" style="rounded=0;orthogonalLoop=1;jettySize=auto;html=1;endArrow=block;endFill=0;fontSize=15;strokeWidth=2;strokeColor=#2E2E2E;" parent="1" source="xrr_TDMlj9EIbR4N-KWx-32" target="xrr_TDMlj9EIbR4N-KWx-30" edge="1">
          <mxGeometry relative="1" as="geometry" />
        </mxCell>
        <mxCell id="xrr_TDMlj9EIbR4N-KWx-32" value="Consulter tickets" style="ellipse;whiteSpace=wrap;html=1;fontSize=15;strokeWidth=2;strokeColor=#2E2E2E;" parent="1" vertex="1">
          <mxGeometry x="470" y="350" width="120" height="80" as="geometry" />
        </mxCell>
        <mxCell id="xrr_TDMlj9EIbR4N-KWx-34" style="rounded=0;orthogonalLoop=1;jettySize=auto;html=1;endArrow=block;endFill=0;fontSize=15;strokeWidth=2;strokeColor=#2E2E2E;" parent="1" source="xrr_TDMlj9EIbR4N-KWx-33" target="xrr_TDMlj9EIbR4N-KWx-30" edge="1">
          <mxGeometry relative="1" as="geometry" />
        </mxCell>
        <mxCell id="xrr_TDMlj9EIbR4N-KWx-33" value="Consulter interventions" style="ellipse;whiteSpace=wrap;html=1;fontSize=15;strokeWidth=2;strokeColor=#2E2E2E;" parent="1" vertex="1">
          <mxGeometry x="460" y="260" width="120" height="80" as="geometry" />
        </mxCell>
        <mxCell id="xrr_TDMlj9EIbR4N-KWx-36" value="context diagram" style="locked=1;" parent="0" />
        <mxCell id="xrr_TDMlj9EIbR4N-KWx-43" style="edgeStyle=orthogonalEdgeStyle;rounded=0;orthogonalLoop=1;jettySize=auto;html=1;fontSize=13;" parent="xrr_TDMlj9EIbR4N-KWx-36" source="xrr_TDMlj9EIbR4N-KWx-37" target="xrr_TDMlj9EIbR4N-KWx-38" edge="1">
          <mxGeometry relative="1" as="geometry">
            <Array as="points">
              <mxPoint x="1460" y="430" />
            </Array>
          </mxGeometry>
        </mxCell>
        <mxCell id="xrr_TDMlj9EIbR4N-KWx-48" value="afficher ticket" style="edgeLabel;html=1;align=center;verticalAlign=middle;resizable=0;points=[];fontSize=13;" parent="xrr_TDMlj9EIbR4N-KWx-43" vertex="1" connectable="0">
          <mxGeometry x="0.4865" y="4" relative="1" as="geometry">
            <mxPoint y="-1" as="offset" />
          </mxGeometry>
        </mxCell>
        <mxCell id="xrr_TDMlj9EIbR4N-KWx-44" style="edgeStyle=orthogonalEdgeStyle;rounded=0;orthogonalLoop=1;jettySize=auto;html=1;exitX=0;exitY=0.5;exitDx=0;exitDy=0;entryX=0.75;entryY=1;entryDx=0;entryDy=0;fontSize=13;" parent="xrr_TDMlj9EIbR4N-KWx-36" source="xrr_TDMlj9EIbR4N-KWx-37" target="xrr_TDMlj9EIbR4N-KWx-39" edge="1">
          <mxGeometry relative="1" as="geometry">
            <Array as="points">
              <mxPoint x="1160" y="450" />
              <mxPoint x="1090" y="450" />
            </Array>
          </mxGeometry>
        </mxCell>
        <mxCell id="xrr_TDMlj9EIbR4N-KWx-50" value="afficher utilisateur" style="edgeLabel;html=1;align=center;verticalAlign=middle;resizable=0;points=[];fontSize=13;" parent="xrr_TDMlj9EIbR4N-KWx-44" vertex="1" connectable="0">
          <mxGeometry x="-0.1826" y="2" relative="1" as="geometry">
            <mxPoint x="19" y="-52" as="offset" />
          </mxGeometry>
        </mxCell>
        <mxCell id="xrr_TDMlj9EIbR4N-KWx-45" style="edgeStyle=orthogonalEdgeStyle;rounded=0;orthogonalLoop=1;jettySize=auto;html=1;exitX=0.5;exitY=1;exitDx=0;exitDy=0;entryX=0;entryY=0.5;entryDx=0;entryDy=0;fontSize=13;" parent="xrr_TDMlj9EIbR4N-KWx-36" source="xrr_TDMlj9EIbR4N-KWx-37" target="xrr_TDMlj9EIbR4N-KWx-40" edge="1">
          <mxGeometry relative="1" as="geometry" />
        </mxCell>
        <mxCell id="xrr_TDMlj9EIbR4N-KWx-64" value="afficher état ticket" style="edgeLabel;html=1;align=center;verticalAlign=middle;resizable=0;points=[];fontSize=13;" parent="xrr_TDMlj9EIbR4N-KWx-45" vertex="1" connectable="0">
          <mxGeometry x="-0.3053" y="1" relative="1" as="geometry">
            <mxPoint as="offset" />
          </mxGeometry>
        </mxCell>
        <mxCell id="xrr_TDMlj9EIbR4N-KWx-51" style="edgeStyle=orthogonalEdgeStyle;rounded=0;orthogonalLoop=1;jettySize=auto;html=1;fontSize=13;" parent="xrr_TDMlj9EIbR4N-KWx-36" source="xrr_TDMlj9EIbR4N-KWx-37" target="xrr_TDMlj9EIbR4N-KWx-39" edge="1">
          <mxGeometry relative="1" as="geometry">
            <mxPoint x="1151.33" y="511.61" as="sourcePoint" />
            <mxPoint x="1050.0000000000002" y="390" as="targetPoint" />
            <Array as="points">
              <mxPoint x="1060" y="480" />
            </Array>
          </mxGeometry>
        </mxCell>
        <mxCell id="xrr_TDMlj9EIbR4N-KWx-52" value="afficher tickets" style="edgeLabel;html=1;align=center;verticalAlign=middle;resizable=0;points=[];fontSize=13;" parent="xrr_TDMlj9EIbR4N-KWx-51" vertex="1" connectable="0">
          <mxGeometry x="0.068" y="-1" relative="1" as="geometry">
            <mxPoint as="offset" />
          </mxGeometry>
        </mxCell>
        <mxCell id="xrr_TDMlj9EIbR4N-KWx-37" value="&lt;font style=&quot;font-size: 18px;&quot;&gt;Système&lt;/font&gt;" style="rounded=1;whiteSpace=wrap;html=1;fontSize=13;" parent="xrr_TDMlj9EIbR4N-KWx-36" vertex="1">
          <mxGeometry x="1160" y="410" width="190" height="130" as="geometry" />
        </mxCell>
        <mxCell id="xrr_TDMlj9EIbR4N-KWx-41" style="edgeStyle=orthogonalEdgeStyle;rounded=0;orthogonalLoop=1;jettySize=auto;html=1;fontSize=13;" parent="xrr_TDMlj9EIbR4N-KWx-36" source="xrr_TDMlj9EIbR4N-KWx-38" edge="1">
          <mxGeometry relative="1" as="geometry">
            <mxPoint x="1320" y="409" as="targetPoint" />
            <Array as="points">
              <mxPoint x="1320" y="310" />
            </Array>
          </mxGeometry>
        </mxCell>
        <mxCell id="xrr_TDMlj9EIbR4N-KWx-49" value="gérer ses tickets" style="edgeLabel;html=1;align=center;verticalAlign=middle;resizable=0;points=[];fontSize=13;" parent="xrr_TDMlj9EIbR4N-KWx-41" vertex="1" connectable="0">
          <mxGeometry x="0.3272" y="1" relative="1" as="geometry">
            <mxPoint as="offset" />
          </mxGeometry>
        </mxCell>
        <mxCell id="xrr_TDMlj9EIbR4N-KWx-38" value="Technicien" style="rounded=0;whiteSpace=wrap;html=1;fontSize=13;" parent="xrr_TDMlj9EIbR4N-KWx-36" vertex="1">
          <mxGeometry x="1440" y="280" width="120" height="60" as="geometry" />
        </mxCell>
        <mxCell id="xrr_TDMlj9EIbR4N-KWx-42" style="edgeStyle=orthogonalEdgeStyle;rounded=0;orthogonalLoop=1;jettySize=auto;html=1;exitX=1;exitY=0.25;exitDx=0;exitDy=0;fontSize=13;" parent="xrr_TDMlj9EIbR4N-KWx-36" edge="1">
          <mxGeometry relative="1" as="geometry">
            <mxPoint x="1120" y="280" as="sourcePoint" />
            <mxPoint x="1260" y="410" as="targetPoint" />
            <Array as="points">
              <mxPoint x="1120" y="295" />
              <mxPoint x="1260" y="295" />
              <mxPoint x="1260" y="410" />
            </Array>
          </mxGeometry>
        </mxCell>
        <mxCell id="xrr_TDMlj9EIbR4N-KWx-58" value="gérer utilisateurs" style="edgeLabel;html=1;align=center;verticalAlign=middle;resizable=0;points=[];fontSize=13;" parent="xrr_TDMlj9EIbR4N-KWx-42" vertex="1" connectable="0">
          <mxGeometry x="-0.6027" y="3" relative="1" as="geometry">
            <mxPoint x="44" as="offset" />
          </mxGeometry>
        </mxCell>
        <mxCell id="xrr_TDMlj9EIbR4N-KWx-54" style="edgeStyle=elbowEdgeStyle;rounded=0;orthogonalLoop=1;jettySize=auto;html=1;exitX=0.25;exitY=1;exitDx=0;exitDy=0;exitPerimeter=0;endArrow=none;endFill=0;startArrow=classic;startFill=1;fontSize=13;" parent="xrr_TDMlj9EIbR4N-KWx-36" source="xrr_TDMlj9EIbR4N-KWx-39" edge="1">
          <mxGeometry relative="1" as="geometry">
            <mxPoint x="1030" y="380" as="sourcePoint" />
            <mxPoint x="1160" y="515" as="targetPoint" />
            <Array as="points">
              <mxPoint x="1030" y="440" />
            </Array>
          </mxGeometry>
        </mxCell>
        <mxCell id="xrr_TDMlj9EIbR4N-KWx-55" value="afficher toutes interventions" style="edgeLabel;html=1;align=center;verticalAlign=middle;resizable=0;points=[];fontSize=13;" parent="xrr_TDMlj9EIbR4N-KWx-54" vertex="1" connectable="0">
          <mxGeometry x="0.4267" y="-1" relative="1" as="geometry">
            <mxPoint x="-39" y="-16" as="offset" />
          </mxGeometry>
        </mxCell>
        <mxCell id="xrr_TDMlj9EIbR4N-KWx-61" style="edgeStyle=orthogonalEdgeStyle;rounded=0;orthogonalLoop=1;jettySize=auto;html=1;exitX=1;exitY=0.75;exitDx=0;exitDy=0;entryX=0.25;entryY=0;entryDx=0;entryDy=0;fontSize=13;" parent="xrr_TDMlj9EIbR4N-KWx-36" source="xrr_TDMlj9EIbR4N-KWx-39" target="xrr_TDMlj9EIbR4N-KWx-37" edge="1">
          <mxGeometry relative="1" as="geometry">
            <mxPoint x="1210" y="400" as="targetPoint" />
          </mxGeometry>
        </mxCell>
        <mxCell id="xrr_TDMlj9EIbR4N-KWx-62" value="gérer interventions" style="edgeLabel;html=1;align=center;verticalAlign=middle;resizable=0;points=[];fontSize=13;" parent="xrr_TDMlj9EIbR4N-KWx-61" vertex="1" connectable="0">
          <mxGeometry x="-0.1949" y="1" relative="1" as="geometry">
            <mxPoint as="offset" />
          </mxGeometry>
        </mxCell>
        <mxCell id="xrr_TDMlj9EIbR4N-KWx-39" value="Admin" style="rounded=0;whiteSpace=wrap;html=1;fontSize=13;" parent="xrr_TDMlj9EIbR4N-KWx-36" vertex="1">
          <mxGeometry x="1000" y="280" width="120" height="60" as="geometry" />
        </mxCell>
        <mxCell id="xrr_TDMlj9EIbR4N-KWx-46" style="edgeStyle=elbowEdgeStyle;rounded=0;orthogonalLoop=1;jettySize=auto;html=1;entryX=1;entryY=0.75;entryDx=0;entryDy=0;fontSize=13;" parent="xrr_TDMlj9EIbR4N-KWx-36" source="xrr_TDMlj9EIbR4N-KWx-40" target="xrr_TDMlj9EIbR4N-KWx-37" edge="1">
          <mxGeometry relative="1" as="geometry">
            <Array as="points">
              <mxPoint x="1480" y="510" />
            </Array>
          </mxGeometry>
        </mxCell>
        <mxCell id="xrr_TDMlj9EIbR4N-KWx-63" value="gérer tickets" style="edgeLabel;html=1;align=center;verticalAlign=middle;resizable=0;points=[];fontSize=13;" parent="xrr_TDMlj9EIbR4N-KWx-46" vertex="1" connectable="0">
          <mxGeometry x="0.0448" y="2" relative="1" as="geometry">
            <mxPoint as="offset" />
          </mxGeometry>
        </mxCell>
        <mxCell id="xrr_TDMlj9EIbR4N-KWx-40" value="Employé" style="rounded=0;whiteSpace=wrap;html=1;fontSize=13;" parent="xrr_TDMlj9EIbR4N-KWx-36" vertex="1">
          <mxGeometry x="1440" y="560" width="120" height="60" as="geometry" />
        </mxCell>
        <mxCell id="xrr_TDMlj9EIbR4N-KWx-56" style="edgeStyle=orthogonalEdgeStyle;rounded=0;orthogonalLoop=1;jettySize=auto;html=1;exitX=1;exitY=0.25;exitDx=0;exitDy=0;entryX=0.696;entryY=1.01;entryDx=0;entryDy=0;entryPerimeter=0;fontSize=13;" parent="xrr_TDMlj9EIbR4N-KWx-36" source="xrr_TDMlj9EIbR4N-KWx-37" target="xrr_TDMlj9EIbR4N-KWx-38" edge="1">
          <mxGeometry relative="1" as="geometry" />
        </mxCell>
        <mxCell id="xrr_TDMlj9EIbR4N-KWx-57" value="afficher intervention du technicien" style="edgeLabel;html=1;align=center;verticalAlign=middle;resizable=0;points=[];fontSize=13;" parent="xrr_TDMlj9EIbR4N-KWx-56" vertex="1" connectable="0">
          <mxGeometry x="0.4573" y="2" relative="1" as="geometry">
            <mxPoint as="offset" />
          </mxGeometry>
        </mxCell>
        <mxCell id="xrr_TDMlj9EIbR4N-KWx-59" style="edgeStyle=orthogonalEdgeStyle;rounded=0;orthogonalLoop=1;jettySize=auto;html=1;exitX=1;exitY=0.5;exitDx=0;exitDy=0;entryX=0.362;entryY=0.009;entryDx=0;entryDy=0;entryPerimeter=0;fontSize=13;" parent="xrr_TDMlj9EIbR4N-KWx-36" source="xrr_TDMlj9EIbR4N-KWx-39" target="xrr_TDMlj9EIbR4N-KWx-37" edge="1">
          <mxGeometry relative="1" as="geometry" />
        </mxCell>
        <mxCell id="xrr_TDMlj9EIbR4N-KWx-60" value="gérer tickets" style="edgeLabel;html=1;align=center;verticalAlign=middle;resizable=0;points=[];fontSize=13;" parent="xrr_TDMlj9EIbR4N-KWx-59" vertex="1" connectable="0">
          <mxGeometry x="-0.7164" y="1" relative="1" as="geometry">
            <mxPoint x="11" y="1" as="offset" />
          </mxGeometry>
        </mxCell>
      </root>
    </mxGraphModel>
  </diagram>
</mxfile>
